<?xml version="1.0" encoding="UTF-8" standalone="no"?>
<!DOCTYPE svg PUBLIC "-//W3C//DTD SVG 1.1//EN" "http://www.w3.org/Graphics/SVG/1.1/DTD/svg11.dtd">
<svg width="100%" height="100%" viewBox="0 0 210 171" version="1.1" xmlns="http://www.w3.org/2000/svg" xmlns:xlink="http://www.w3.org/1999/xlink" xml:space="preserve" xmlns:serif="http://www.serif.com/" style="fill-rule:evenodd;clip-rule:evenodd;stroke-linecap:round;stroke-linejoin:round;stroke-miterlimit:1.41421;">
    <g transform="matrix(1,0,0,1,-821.564,-805.17)">
        <g transform="matrix(1,0,0,1,-44.6854,534.594)">
            <g transform="matrix(1,0,0,1,745.664,-14.3672)">
                <rect x="175.978" y="315.646" width="83.093" height="83.093" style="fill:rgb(235,235,235);stroke:rgb(105,188,69);stroke-width:9px;"/>
            </g>
            <g>
                <g transform="matrix(1,0,0,1,2.32713,1.78196)">
                    <g transform="matrix(1,-0,-0,1,863.922,268.794)">
                        <path d="M119.264,78.47C115.256,75.535 109.62,76.405 106.685,80.413C103.75,84.42 104.621,90.057 108.628,92.992C112.635,95.927 118.272,95.056 121.207,91.049C124.142,87.041 123.271,81.405 119.264,78.47Z" style="fill:none;stroke:black;stroke-width:9px;stroke-linecap:butt;stroke-linejoin:miter;stroke-miterlimit:10;"/>
                        <path d="M166.071,112.752C170.079,115.687 170.949,121.323 168.014,125.331C165.079,129.338 159.443,130.209 155.436,127.274C151.428,124.339 150.558,118.702 153.493,114.695C156.428,110.687 162.064,109.817 166.071,112.752Z" style="fill:none;stroke:black;stroke-width:9px;stroke-linecap:butt;stroke-linejoin:miter;stroke-miterlimit:10;"/>
                        <path d="M121.207,91.049C131.182,98.354 143.518,107.389 153.493,114.695" style="fill:none;stroke:black;stroke-width:9px;stroke-linecap:butt;stroke-linejoin:bevel;"/>
                    </g>
                </g>
                <g transform="matrix(0.210585,-0.977576,0.977576,0.210585,427.761,1237.55)">
                    <g transform="matrix(0.210585,0.977576,-0.977576,0.210585,1037.63,225.026)">
                        <path d="M108.032,78.962C104.319,82.262 103.983,87.955 107.283,91.668C110.582,95.381 116.276,95.717 119.989,92.418C123.702,89.118 124.038,83.425 120.738,79.712C117.439,75.999 111.745,75.663 108.032,78.962Z" style="fill:none;stroke:black;stroke-width:9px;stroke-linecap:butt;stroke-linejoin:miter;stroke-miterlimit:10;"/>
                        <path d="M151.403,40.423C155.116,37.124 160.809,37.46 164.108,41.173C167.408,44.886 167.072,50.579 163.359,53.879C159.646,57.178 153.953,56.842 150.653,53.129C147.354,49.416 147.69,43.723 151.403,40.423Z" style="fill:none;stroke:black;stroke-width:9px;stroke-linecap:butt;stroke-linejoin:miter;stroke-miterlimit:10;"/>
                        <path d="M120.738,79.712C129.981,71.499 141.411,61.342 150.653,53.129" style="fill:none;stroke:black;stroke-width:9px;stroke-linecap:butt;stroke-linejoin:bevel;"/>
                    </g>
                </g>
                <g transform="matrix(-0.870217,-0.492669,0.492669,-0.870217,1660.54,1144.13)">
                    <g transform="matrix(-0.870217,0.492669,-0.492669,-0.870217,1121.57,368.856)">
                        <path d="M107.744,91.877C111.14,95.502 116.84,95.689 120.465,92.293C124.091,88.898 124.277,83.198 120.882,79.572C117.486,75.947 111.786,75.76 108.161,79.156C104.535,82.551 104.349,88.251 107.744,91.877Z" style="fill:none;stroke:black;stroke-width:9px;stroke-linecap:butt;stroke-linejoin:miter;stroke-miterlimit:10;"/>
                        <path d="M76.381,58.39C72.986,54.765 73.172,49.064 76.798,45.669C80.423,42.273 86.123,42.46 89.519,46.086C92.914,49.711 92.728,55.411 89.102,58.807C85.477,62.202 79.777,62.015 76.381,58.39Z" style="fill:none;stroke:black;stroke-width:9px;stroke-linecap:butt;stroke-linejoin:miter;stroke-miterlimit:10;"/>
                        <path d="M108.161,79.156C102.103,72.688 95.16,65.275 89.102,58.807" style="fill:none;stroke:black;stroke-width:9px;stroke-linecap:butt;stroke-linejoin:bevel;"/>
                    </g>
                </g>
                <g transform="matrix(-0.475655,0.879632,-0.879632,-0.475655,1756.57,-336.588)">
                    <g transform="matrix(-0.475655,-0.879632,0.879632,-0.475655,957.568,494.356)">
                        <path d="M118.813,93.346C123.034,90.728 124.335,85.175 121.717,80.954C119.099,76.733 113.546,75.432 109.325,78.05C105.104,80.668 103.803,86.221 106.421,90.442C109.039,94.663 114.592,95.965 118.813,93.346Z" style="fill:none;stroke:black;stroke-width:9px;stroke-linecap:butt;stroke-linejoin:miter;stroke-miterlimit:10;"/>
                        <path d="M54.4,133.301C50.179,135.919 44.626,134.618 42.008,130.396C39.39,126.175 40.691,120.623 44.912,118.004C49.133,115.386 54.686,116.687 57.304,120.908C59.922,125.13 58.621,130.682 54.4,133.301Z" style="fill:none;stroke:black;stroke-width:9px;stroke-linecap:butt;stroke-linejoin:miter;stroke-miterlimit:10;"/>
                        <path d="M106.421,90.442C91.849,99.481 71.876,111.87 57.304,120.908" style="fill:none;stroke:black;stroke-width:9px;stroke-linecap:butt;stroke-linejoin:bevel;"/>
                    </g>
                </g>
            </g>
        </g>
    </g>
</svg>
