<?xml version="1.0" encoding="UTF-8" standalone="no"?>
<!DOCTYPE svg PUBLIC "-//W3C//DTD SVG 1.1//EN" "http://www.w3.org/Graphics/SVG/1.1/DTD/svg11.dtd">
<svg width="100%" height="100%" viewBox="0 0 75 89" version="1.1" xmlns="http://www.w3.org/2000/svg" xmlns:xlink="http://www.w3.org/1999/xlink" xml:space="preserve" xmlns:serif="http://www.serif.com/" style="fill-rule:evenodd;clip-rule:evenodd;stroke-linecap:round;stroke-linejoin:round;stroke-miterlimit:1.41421;">
    <g transform="matrix(1,0,0,1,-813.72,-627.721)">
        <g transform="matrix(0.655538,0,0,0.655538,313.151,452.454)">
            <g>
                <g transform="matrix(1,0,0,1,183.546,-21.596)">
                    <path d="M661.328,332.411C660.237,332.337 659.142,332.337 658.051,332.411C656.883,336.015 654.876,339.068 652.032,341.571C651.508,341.837 650.999,342.132 650.506,342.452C646.916,343.664 643.269,343.875 639.564,343.084C638.954,343.992 638.407,344.941 637.925,345.923C640.462,348.736 642.103,352 642.848,355.715C642.817,356.302 642.817,356.89 642.848,357.477C642.103,361.192 640.462,364.456 637.925,367.269C638.407,368.251 638.954,369.2 639.564,370.108C643.269,369.317 646.916,369.528 650.506,370.74C650.999,371.06 651.508,371.354 652.032,371.621C654.876,374.124 656.883,377.177 658.051,380.781C659.142,380.855 660.237,380.855 661.328,380.781C662.496,377.177 664.502,374.124 667.347,371.621C667.871,371.354 668.38,371.06 668.873,370.74C672.462,369.528 676.11,369.317 679.815,370.108C680.425,369.2 680.972,368.251 681.454,367.269C678.916,364.456 677.275,361.192 676.53,357.477C676.561,356.89 676.561,356.302 676.53,355.715C677.275,352 678.916,348.736 681.454,345.923C680.972,344.941 680.425,343.992 679.815,343.084C676.11,343.875 672.462,343.664 668.873,342.452C668.38,342.132 667.871,341.837 667.347,341.571C664.502,339.068 662.496,336.015 661.328,332.411ZM659.689,353.656C661.312,353.656 662.629,354.973 662.629,356.596C662.629,358.218 661.312,359.536 659.689,359.536C658.067,359.536 656.75,358.218 656.75,356.596C656.75,354.973 658.067,353.656 659.689,353.656Z" style="fill:rgb(235,235,235);stroke:black;stroke-width:9px;"/>
                </g>
                <path d="M873.366,355.29L873.366,397.502L790.273,397.502L790.273,351.29L805.671,360.207L821.002,349.251L827.98,360.794L854.676,343.624L857.247,357.466L873.366,355.29Z" style="fill:rgb(235,235,235);stroke:rgb(105,188,69);stroke-width:9px;"/>
                <g transform="matrix(0.799119,-0.601172,0.601172,0.799119,-52.4353,545.658)">
                    <path d="M873.366,355.955L873.366,314.409L790.273,314.409L790.273,351.29L805.671,360.207L821.002,349.251L827.98,360.794L854.676,343.624L857.247,357.466L873.366,355.29L873.366,355.955Z" style="fill:rgb(235,235,235);stroke:rgb(105,188,69);stroke-width:9px;"/>
                </g>
            </g>
        </g>
    </g>
</svg>
